<?xml version="1.0" encoding="UTF-8" standalone="no" ?>
<!DOCTYPE svg PUBLIC "-//W3C//DTD SVG 1.1//EN" "http://www.w3.org/Graphics/SVG/1.1/DTD/svg11.dtd">
<svg xmlns="http://www.w3.org/2000/svg" xmlns:xlink="http://www.w3.org/1999/xlink" version="1.1" width="1080" height="350" viewBox="0 0 1080 350" xml:space="preserve">
<desc>Created with Fabric.js 5.2.4</desc>
<defs>
</defs>
<rect x="0" y="0" width="100%" height="100%" fill="transparent"></rect>
<g transform="matrix(Infinity NaN NaN Infinity 0 0)" id="d6d49a4a-1c8d-443e-b6fd-398e1d26e239"  >
</g>
<g transform="matrix(1 0 0 1 540 175)" id="18f73cf9-be3a-4fb5-87b4-05cdcdf94538"  >
<rect style="stroke: none; stroke-width: 1; stroke-dasharray: none; stroke-linecap: butt; stroke-dashoffset: 0; stroke-linejoin: miter; stroke-miterlimit: 4; fill: rgb(255,255,255); fill-rule: nonzero; opacity: 1; visibility: hidden;" vector-effect="non-scaling-stroke"  x="-540" y="-175" rx="0" ry="0" width="1080" height="350" />
</g>
<g transform="matrix(0.97 0 0 0.97 540 175)"  >
<g style="" vector-effect="non-scaling-stroke"   >
		<g transform="matrix(1 0 0 1 -280.15 30.85)"  >
<path style="stroke: none; stroke-width: 1; stroke-dasharray: none; stroke-linecap: butt; stroke-dashoffset: 0; stroke-linejoin: miter; stroke-miterlimit: 4; fill: rgb(255,255,255); fill-rule: nonzero; opacity: 1;" vector-effect="non-scaling-stroke"  transform=" translate(-183.55, -174.35)" d="M 222.4 164.4 C 222.4 167 221.9 171.8 221 178.9 L 152.1 178.9 L 151.7 182.9 C 151.5 188.5 152.7 193.1 155.39999999999998 196.8 C 158.09999999999997 200.5 160.89999999999998 204.20000000000002 163.7 208.10000000000002 L 157.79999999999998 211.60000000000002 C 154.7 207.3 151.7 202.90000000000003 148.6 198.40000000000003 C 146 194.40000000000003 144.7 189.30000000000004 144.7 182.90000000000003 C 144.7 169.80000000000004 149.89999999999998 158.80000000000004 160.2 149.90000000000003 C 170.1 141.40000000000003 181.7 137.10000000000002 195 137.10000000000002 C 213.3 137.2 222.4 146.2 222.4 164.4 z M 215.4 164.4 C 215.4 151 209.3 144.20000000000002 197.3 144.20000000000002 C 187.3 144.20000000000002 178.5 146.4 170.9 150.8 C 162.4 155.70000000000002 156.70000000000002 162.70000000000002 153.70000000000002 171.70000000000002 L 214.90000000000003 171.70000000000002 C 215.2 169.1 215.4 166.6 215.4 164.4 z" stroke-linecap="round" />
</g>
		<g transform="matrix(1 0 0 1 -189.3 32)"  >
<path style="stroke: none; stroke-width: 1; stroke-dasharray: none; stroke-linecap: butt; stroke-dashoffset: 0; stroke-linejoin: miter; stroke-miterlimit: 4; fill: rgb(255,255,255); fill-rule: nonzero; opacity: 1;" vector-effect="non-scaling-stroke"  transform=" translate(-274.4, -175.5)" d="M 305.3 210.1 L 298.3 210.1 L 298.3 170.39999999999998 C 298.3 159.7 292.6 152.59999999999997 281.2 149.2 C 278.9 148.5 276.59999999999997 148.1 274.59999999999997 148.1 C 272.4 148.1 269.99999999999994 148.5 267.59999999999997 149.2 C 256.29999999999995 152.7 250.49999999999997 159.79999999999998 250.49999999999997 170.39999999999998 L 250.49999999999997 210.09999999999997 L 243.49999999999997 210.09999999999997 L 243.49999999999997 170.19999999999996 C 243.49999999999997 156.09999999999997 250.69999999999996 146.89999999999995 265.2 142.39999999999995 C 268.4 141.39999999999995 271.5 140.89999999999995 274.4 140.89999999999995 C 277.4 140.89999999999995 280.5 141.39999999999995 283.59999999999997 142.39999999999995 C 298.09999999999997 146.99999999999994 305.29999999999995 156.29999999999995 305.29999999999995 170.19999999999996 L 305.3 210.1 L 305.3 210.1 z" stroke-linecap="round" />
</g>
		<g transform="matrix(1 0 0 1 -127.55 -1.4)"  >
<path style="stroke: none; stroke-width: 1; stroke-dasharray: none; stroke-linecap: butt; stroke-dashoffset: 0; stroke-linejoin: miter; stroke-miterlimit: 4; fill: rgb(255,255,255); fill-rule: nonzero; opacity: 1;" vector-effect="non-scaling-stroke"  transform=" translate(-336.15, -142.1)" d="M 346.6 210.1 L 339.6 210.1 L 339.6 147.2 L 325.70000000000005 147.2 L 325.70000000000005 140.2 L 339.6 140.2 L 339.6 74.1 L 346.6 74.1 L 346.6 210.1 z" stroke-linecap="round" />
</g>
		<g transform="matrix(1 0 0 1 -51.9 0)"  >
<path style="stroke: none; stroke-width: 1; stroke-dasharray: none; stroke-linecap: butt; stroke-dashoffset: 0; stroke-linejoin: miter; stroke-miterlimit: 4; fill: rgb(255,255,255); fill-rule: nonzero; opacity: 1;" vector-effect="non-scaling-stroke"  transform=" translate(-411.8, -143.5)" d="M 444.6 212.9 L 437.6 212.9 L 437.6 184.9 C 437.6 173.70000000000002 433.70000000000005 164.5 425.8 157.20000000000002 C 418 150.00000000000003 407.7 146.3 394.8 146.3 L 379 146.3 L 379 74.1 L 386 74.1 L 386 139.2 C 387.7 139.2 390.6 139.2 394.7 139.2 C 409.2 139.2 420.9 143.1 430 151 C 439.6 159.2 444.5 170.5 444.5 184.7 L 444.6 212.9 L 444.6 212.9 z" stroke-linecap="round" />
</g>
		<g transform="matrix(1 0 0 1 32.25 29.65)"  >
<path style="stroke: none; stroke-width: 1; stroke-dasharray: none; stroke-linecap: butt; stroke-dashoffset: 0; stroke-linejoin: miter; stroke-miterlimit: 4; fill: rgb(255,255,255); fill-rule: nonzero; opacity: 1;" vector-effect="non-scaling-stroke"  transform=" translate(-495.95, -173.15)" d="M 521.7 139.2 L 484.1 210 L 475.70000000000005 210.1 L 496.40000000000003 171.7 L 470.20000000000005 140.79999999999998 L 475.50000000000006 136.2 L 499.90000000000003 165.2 L 515.3000000000001 136.2 L 521.7 139.2 z" stroke-linecap="round" />
</g>
		<g transform="matrix(1 0 0 1 118.6 31.75)"  >
<path style="stroke: none; stroke-width: 1; stroke-dasharray: none; stroke-linecap: butt; stroke-dashoffset: 0; stroke-linejoin: miter; stroke-miterlimit: 4; fill: rgb(255,255,255); fill-rule: nonzero; opacity: 1;" vector-effect="non-scaling-stroke"  transform=" translate(-582.3, -175.25)" d="M 613.1 181.9 C 613.1 195.8 605.9 205.1 591.4 209.6 C 587.9 210.7 584.9 211.29999999999998 582.1999999999999 211.29999999999998 C 579.4999999999999 211.29999999999998 576.4 210.7 572.9999999999999 209.6 C 558.4999999999999 205.2 551.2999999999998 195.9 551.2999999999998 181.9 L 551.2999999999998 139.2 L 558.2999999999998 139.2 L 558.2999999999998 181.89999999999998 C 558.2999999999998 192.59999999999997 563.8999999999999 199.7 575.3999999999999 203.09999999999997 C 578.0999999999999 203.79999999999995 580.3999999999999 204.19999999999996 582.2999999999998 204.19999999999996 C 584.1999999999998 204.19999999999996 586.3999999999999 203.79999999999995 589.1999999999998 203.09999999999997 C 600.4999999999998 199.59999999999997 606.2999999999998 192.49999999999997 606.2999999999998 181.89999999999998 L 606.2999999999998 139.2 L 613.2999999999998 139.2 L 613.2999999999998 181.9 z" stroke-linecap="round" />
</g>
		<g transform="matrix(1 0 0 1 204.45 30.35)"  >
<path style="stroke: none; stroke-width: 1; stroke-dasharray: none; stroke-linecap: butt; stroke-dashoffset: 0; stroke-linejoin: miter; stroke-miterlimit: 4; fill: rgb(255,255,255); fill-rule: nonzero; opacity: 1;" vector-effect="non-scaling-stroke"  transform=" translate(-668.15, -173.85)" d="M 701.7 208.2 L 634.7 208.2 L 634.6 201 L 692.1 146.5 L 634.7 146.5 L 634.7 139.5 L 701.7 139.5 L 701.7 146.4 L 644.9000000000001 201.2 L 701.7 201.2 L 701.7 208.2 z" stroke-linecap="round" />
</g>
		<g transform="matrix(1 0 0 1 318.7 31.65)"  >
<path style="stroke: none; stroke-width: 1; stroke-dasharray: none; stroke-linecap: butt; stroke-dashoffset: 0; stroke-linejoin: miter; stroke-miterlimit: 4; fill: rgb(255,255,255); fill-rule: nonzero; opacity: 1;" vector-effect="non-scaling-stroke"  transform=" translate(-782.4, -175.15)" d="M 840.6 210.1 L 833.6 210.1 L 833.6 170.1 C 833.6 164 832.2 159.4 829.6 156.29999999999998 C 826.9 153.2 822.6 150.7 816.7 148.6 C 814.1 147.9 811.7 147.5 809.5 147.5 C 807.6 147.5 805.5 147.9 802.9 148.6 C 797 150.6 792.8 153.1 790.3 156 C 787.5 159.3 786 163.9 786 169.9 L 786 209.9 L 779 209.9 L 779 167.60000000000002 C 779 161.70000000000002 776.4 156.8 771.2 152.90000000000003 C 766.5 149.20000000000005 761.2 147.30000000000004 755.1 147.30000000000004 C 753 147.30000000000004 750.7 147.70000000000005 748.2 148.40000000000003 C 742.1 150.40000000000003 737.9000000000001 152.90000000000003 735.4000000000001 155.80000000000004 C 732.6000000000001 159.10000000000005 731.1000000000001 163.70000000000005 731.1000000000001 169.70000000000005 L 731.1000000000001 209.70000000000005 L 724.1000000000001 209.70000000000005 L 724.1000000000001 169.90000000000003 C 724.1000000000001 161.40000000000003 727.1000000000001 154.30000000000004 733.1000000000001 148.70000000000005 C 739.1000000000001 143.10000000000005 746.4000000000001 140.20000000000005 755.0000000000001 140.20000000000005 C 759.8000000000001 140.20000000000005 765.0000000000001 141.60000000000005 770.5000000000001 144.60000000000005 C 776.0000000000001 147.60000000000005 780.0000000000001 151.00000000000006 782.4000000000001 155.00000000000006 C 784.7 151.00000000000006 788.7 147.60000000000005 794.3000000000001 144.60000000000005 C 799.9000000000001 141.60000000000005 805.0000000000001 140.20000000000005 809.8000000000001 140.20000000000005 C 818.4000000000001 140.20000000000005 825.8000000000001 143.00000000000006 831.7 148.70000000000005 C 837.7 154.30000000000004 840.7 161.40000000000003 840.7 169.90000000000003 L 840.6 210.1 L 840.6 210.1 z" stroke-linecap="round" />
</g>
		<g transform="matrix(1 0 0 1 -366.1 -40)"  >
<path style="stroke: none; stroke-width: 1; stroke-dasharray: none; stroke-linecap: butt; stroke-dashoffset: 0; stroke-linejoin: miter; stroke-miterlimit: 4; fill: rgb(255,255,255); fill-rule: nonzero; opacity: 1;" vector-effect="non-scaling-stroke"  transform=" translate(-97.6, -103.5)" d="M 86.9 95.1 C 86.9 92.19999999999999 86.80000000000001 89.8 86.7 87.69999999999999 L 90.4 87.69999999999999 L 90.60000000000001 91.6 L 90.7 91.6 C 92.4 88.8 95.10000000000001 87.19999999999999 98.8 87.19999999999999 C 104.3 87.19999999999999 108.5 91.89999999999999 108.5 98.79999999999998 C 108.5 106.99999999999999 103.5 110.99999999999999 98.1 110.99999999999999 C 95.1 110.99999999999999 92.39999999999999 109.69999999999999 91.1 107.39999999999999 L 91 107.39999999999999 L 91 119.8 L 86.9 119.8 L 86.9 95.1 z M 91 101.1 C 91 101.69999999999999 91.1 102.3 91.2 102.8 C 92 105.7 94.4 107.6 97.4 107.6 C 101.80000000000001 107.6 104.30000000000001 104 104.30000000000001 98.8 C 104.30000000000001 94.2 101.9 90.3 97.50000000000001 90.3 C 94.70000000000002 90.3 92.00000000000001 92.3 91.20000000000002 95.39999999999999 C 91.10000000000002 95.89999999999999 90.90000000000002 96.49999999999999 90.90000000000002 97.1 L 90.90000000000002 101.1 z" stroke-linecap="round" />
</g>
		<g transform="matrix(1 0 0 1 -340.5 -44.5)"  >
<path style="stroke: none; stroke-width: 1; stroke-dasharray: none; stroke-linecap: butt; stroke-dashoffset: 0; stroke-linejoin: miter; stroke-miterlimit: 4; fill: rgb(255,255,255); fill-rule: nonzero; opacity: 1;" vector-effect="non-scaling-stroke"  transform=" translate(-123.2, -99)" d="M 134.3 98.8 C 134.3 107.2 128.5 110.89999999999999 123.00000000000001 110.89999999999999 C 116.80000000000001 110.89999999999999 112.10000000000001 106.39999999999999 112.10000000000001 99.19999999999999 C 112.10000000000001 91.6 117.10000000000001 87.1 123.4 87.1 C 129.9 87.1 134.3 91.9 134.3 98.8 z M 116.3 99.1 C 116.3 104.1 119.2 107.89999999999999 123.2 107.89999999999999 C 127.2 107.89999999999999 130.1 104.19999999999999 130.1 98.99999999999999 C 130.1 95.09999999999998 128.2 90.19999999999999 123.3 90.19999999999999 C 118.4 90.2 116.3 94.7 116.3 99.1 z" stroke-linecap="round" />
</g>
		<g transform="matrix(1 0 0 1 -310.7 -44.45)"  >
<path style="stroke: none; stroke-width: 1; stroke-dasharray: none; stroke-linecap: butt; stroke-dashoffset: 0; stroke-linejoin: miter; stroke-miterlimit: 4; fill: rgb(255,255,255); fill-rule: nonzero; opacity: 1;" vector-effect="non-scaling-stroke"  transform=" translate(-153, -99.05)" d="M 140.9 87.6 L 143.9 99.19999999999999 C 144.6 101.69999999999999 145.20000000000002 104.1 145.6 106.49999999999999 L 145.7 106.49999999999999 C 146.2 104.19999999999999 147 101.69999999999999 147.7 99.29999999999998 L 151.39999999999998 87.69999999999999 L 154.89999999999998 87.69999999999999 L 158.39999999999998 99.1 C 159.2 101.8 159.89999999999998 104.19999999999999 160.39999999999998 106.5 L 160.49999999999997 106.5 C 160.89999999999998 104.2 161.49999999999997 101.8 162.19999999999996 99.1 L 165.39999999999995 87.69999999999999 L 169.49999999999994 87.69999999999999 L 162.19999999999993 110.49999999999999 L 158.39999999999992 110.49999999999999 L 154.89999999999992 99.59999999999998 C 154.0999999999999 97.09999999999998 153.39999999999992 94.79999999999998 152.89999999999992 92.09999999999998 L 153 92.09999999999998 C 152.4 94.79999999999998 151.7 97.19999999999997 150.9 99.59999999999998 L 147.20000000000002 110.39999999999998 L 143.4 110.39999999999998 L 136.5 87.59999999999998 L 140.9 87.59999999999998 z" stroke-linecap="round" />
</g>
		<g transform="matrix(1 0 0 1 -281.95 -44.5)"  >
<path style="stroke: none; stroke-width: 1; stroke-dasharray: none; stroke-linecap: butt; stroke-dashoffset: 0; stroke-linejoin: miter; stroke-miterlimit: 4; fill: rgb(255,255,255); fill-rule: nonzero; opacity: 1;" vector-effect="non-scaling-stroke"  transform=" translate(-181.75, -99)" d="M 175.7 99.8 C 175.79999999999998 105.39999999999999 179.39999999999998 107.7 183.5 107.7 C 186.5 107.7 188.3 107.2 189.8 106.5 L 190.5 109.5 C 189 110.2 186.5 110.9 182.9 110.9 C 175.9 110.9 171.70000000000002 106.30000000000001 171.70000000000002 99.4 C 171.70000000000002 92.5 175.70000000000002 87.10000000000001 182.4 87.10000000000001 C 189.8 87.10000000000001 191.8 93.60000000000001 191.8 97.80000000000001 C 191.8 98.60000000000001 191.70000000000002 99.30000000000001 191.70000000000002 99.70000000000002 L 175.7 99.70000000000002 z M 187.9 96.8 C 187.9 94.2 186.8 90.1 182.20000000000002 90.1 C 178.00000000000003 90.1 176.20000000000002 94 175.8 96.8 L 187.9 96.8 z" stroke-linecap="round" />
</g>
		<g transform="matrix(1 0 0 1 -261.2 -44.8)"  >
<path style="stroke: none; stroke-width: 1; stroke-dasharray: none; stroke-linecap: butt; stroke-dashoffset: 0; stroke-linejoin: miter; stroke-miterlimit: 4; fill: rgb(255,255,255); fill-rule: nonzero; opacity: 1;" vector-effect="non-scaling-stroke"  transform=" translate(-202.5, -98.7)" d="M 197 94.7 C 197 92 197 89.7 196.8 87.60000000000001 L 200.4 87.60000000000001 L 200.5 92.10000000000001 L 200.7 92.10000000000001 C 201.7 89.00000000000001 204.2 87.10000000000001 207 87.10000000000001 C 207.5 87.10000000000001 207.8 87.10000000000001 208.2 87.2 L 208.2 91.10000000000001 C 207.79999999999998 91.00000000000001 207.39999999999998 91.00000000000001 206.79999999999998 91.00000000000001 C 203.89999999999998 91.00000000000001 201.79999999999998 93.20000000000002 201.2 96.30000000000001 C 201.1 96.9 201 97.50000000000001 201 98.20000000000002 L 201 110.30000000000001 L 197 110.30000000000001 L 197 94.7 z" stroke-linecap="round" />
</g>
		<g transform="matrix(1 0 0 1 -243.45 -44.5)"  >
<path style="stroke: none; stroke-width: 1; stroke-dasharray: none; stroke-linecap: butt; stroke-dashoffset: 0; stroke-linejoin: miter; stroke-miterlimit: 4; fill: rgb(255,255,255); fill-rule: nonzero; opacity: 1;" vector-effect="non-scaling-stroke"  transform=" translate(-220.25, -99)" d="M 214.2 99.8 C 214.29999999999998 105.39999999999999 217.89999999999998 107.7 222 107.7 C 225 107.7 226.8 107.2 228.3 106.5 L 229 109.5 C 227.5 110.2 225 110.9 221.4 110.9 C 214.4 110.9 210.20000000000002 106.30000000000001 210.20000000000002 99.4 C 210.20000000000002 92.5 214.20000000000002 87.10000000000001 220.9 87.10000000000001 C 228.3 87.10000000000001 230.3 93.60000000000001 230.3 97.80000000000001 C 230.3 98.60000000000001 230.20000000000002 99.30000000000001 230.20000000000002 99.70000000000002 L 214.2 99.70000000000002 z M 226.4 96.8 C 226.4 94.2 225.3 90.1 220.70000000000002 90.1 C 216.50000000000003 90.1 214.70000000000002 94 214.3 96.8 L 226.4 96.8 z" stroke-linecap="round" />
</g>
		<g transform="matrix(1 0 0 1 -219.05 -49.55)"  >
<path style="stroke: none; stroke-width: 1; stroke-dasharray: none; stroke-linecap: butt; stroke-dashoffset: 0; stroke-linejoin: miter; stroke-miterlimit: 4; fill: rgb(255,255,255); fill-rule: nonzero; opacity: 1;" vector-effect="non-scaling-stroke"  transform=" translate(-244.65, -93.95)" d="M 255.2 77 L 255.2 104.5 C 255.2 106.5 255.2 108.8 255.39999999999998 110.4 L 251.7 110.4 L 251.5 106.4 L 251.4 106.4 C 250.1 108.9 247.4 110.9 243.6 110.9 C 238.1 110.9 233.9 106.2 233.9 99.30000000000001 C 233.9 91.70000000000002 238.6 87.10000000000001 244.1 87.10000000000001 C 247.6 87.10000000000001 249.9 88.7 251 90.60000000000001 L 251.1 90.60000000000001 L 251.1 77 L 255.2 77 z M 251 96.9 C 251 96.4 251 95.7 250.8 95.2 C 250.20000000000002 92.60000000000001 247.9 90.4 244.8 90.4 C 240.5 90.4 238 94.2 238 99.2 C 238 103.8 240.3 107.60000000000001 244.7 107.60000000000001 C 247.5 107.60000000000001 250 105.80000000000001 250.79999999999998 102.7 C 250.89999999999998 102.10000000000001 250.99999999999997 101.60000000000001 250.99999999999997 100.9 L 250.99999999999997 96.9 z" stroke-linecap="round" />
</g>
		<g transform="matrix(1 0 0 1 -180.9 -49.55)"  >
<path style="stroke: none; stroke-width: 1; stroke-dasharray: none; stroke-linecap: butt; stroke-dashoffset: 0; stroke-linejoin: miter; stroke-miterlimit: 4; fill: rgb(255,255,255); fill-rule: nonzero; opacity: 1;" vector-effect="non-scaling-stroke"  transform=" translate(-282.8, -93.95)" d="M 271.9 110.4 C 272 108.80000000000001 272.09999999999997 106.5 272.09999999999997 104.5 L 272.09999999999997 77 L 276.2 77 L 276.2 91.3 L 276.3 91.3 C 277.8 88.8 280.40000000000003 87.1 284.1 87.1 C 289.8 87.1 293.8 91.8 293.70000000000005 98.69999999999999 C 293.70000000000005 106.79999999999998 288.6 110.89999999999999 283.50000000000006 110.89999999999999 C 280.20000000000005 110.89999999999999 277.6000000000001 109.6 275.90000000000003 106.6 L 275.8 106.6 L 275.6 110.39999999999999 L 271.9 110.39999999999999 z M 276.1 101.3 C 276.1 101.8 276.20000000000005 102.3 276.3 102.8 C 277.1 105.7 279.5 107.6 282.5 107.6 C 286.8 107.6 289.4 104.1 289.4 98.8 C 289.4 94.2 287 90.3 282.59999999999997 90.3 C 279.79999999999995 90.3 277.09999999999997 92.2 276.29999999999995 95.39999999999999 C 276.19999999999993 95.89999999999999 276.09999999999997 96.39999999999999 276.09999999999997 97.1 L 276.09999999999997 101.3 z" stroke-linecap="round" />
</g>
		<g transform="matrix(1 0 0 1 -157.4 -39.3)"  >
<path style="stroke: none; stroke-width: 1; stroke-dasharray: none; stroke-linecap: butt; stroke-dashoffset: 0; stroke-linejoin: miter; stroke-miterlimit: 4; fill: rgb(255,255,255); fill-rule: nonzero; opacity: 1;" vector-effect="non-scaling-stroke"  transform=" translate(-306.3, -104.2)" d="M 300 87.6 L 305 101.1 C 305.5 102.6 306.1 104.39999999999999 306.5 105.8 L 306.6 105.8 C 307 104.39999999999999 307.5 102.7 308.1 101 L 312.6 87.6 L 317 87.6 L 310.8 103.8 C 307.8 111.6 305.8 115.6 303 118.1 C 301 119.89999999999999 299 120.6 297.9 120.8 L 296.9 117.3 C 297.9 117 299.29999999999995 116.3 300.5 115.3 C 301.6 114.39999999999999 303 112.8 304 110.7 C 304.2 110.3 304.3 109.9 304.3 109.7 C 304.3 109.5 304.2 109.10000000000001 304 108.60000000000001 L 295.6 87.60000000000001 L 300 87.60000000000001 z" stroke-linecap="round" />
</g>
</g>
</g>
</svg>